<svg width="128" height="128" viewBox="0 0 128 128" xmlns="http://www.w3.org/2000/svg">
  <defs>
    <linearGradient id="grad1" x1="0%" y1="0%" x2="100%" y2="100%">
      <stop offset="0%" style="stop-color:#4A90E2;stop-opacity:1" />
      <stop offset="100%" style="stop-color:#2E5A8A;stop-opacity:1" />
    </linearGradient>
  </defs>
  
  <!-- Background circle -->
  <circle cx="64" cy="64" r="58" fill="url(#grad1)" stroke="#1E3A5F" stroke-width="2"/>
  
  <!-- Database tables representation -->
  <!-- Table 1 -->
  <rect x="20" y="25" width="35" height="25" rx="3" fill="#FFFFFF" stroke="#2E5A8A" stroke-width="1.5"/>
  <line x1="20" y1="32" x2="55" y2="32" stroke="#2E5A8A" stroke-width="1"/>
  <line x1="20" y1="38" x2="55" y2="38" stroke="#E8E8E8" stroke-width="0.5"/>
  <line x1="20" y1="43" x2="55" y2="43" stroke="#E8E8E8" stroke-width="0.5"/>
  
  <!-- Table 2 -->
  <rect x="73" y="25" width="35" height="25" rx="3" fill="#FFFFFF" stroke="#2E5A8A" stroke-width="1.5"/>
  <line x1="73" y1="32" x2="108" y2="32" stroke="#2E5A8A" stroke-width="1"/>
  <line x1="73" y1="38" x2="108" y2="38" stroke="#E8E8E8" stroke-width="0.5"/>
  <line x1="73" y1="43" x2="108" y2="43" stroke="#E8E8E8" stroke-width="0.5"/>
  
  <!-- Table 3 -->
  <rect x="20" y="78" width="35" height="25" rx="3" fill="#FFFFFF" stroke="#2E5A8A" stroke-width="1.5"/>
  <line x1="20" y1="85" x2="55" y2="85" stroke="#2E5A8A" stroke-width="1"/>
  <line x1="20" y1="91" x2="55" y2="91" stroke="#E8E8E8" stroke-width="0.5"/>
  <line x1="20" y1="96" x2="55" y2="96" stroke="#E8E8E8" stroke-width="0.5"/>
  
  <!-- Table 4 -->
  <rect x="73" y="78" width="35" height="25" rx="3" fill="#FFFFFF" stroke="#2E5A8A" stroke-width="1.5"/>
  <line x1="73" y1="85" x2="108" y2="85" stroke="#2E5A8A" stroke-width="1"/>
  <line x1="73" y1="91" x2="108" y2="91" stroke="#E8E8E8" stroke-width="0.5"/>
  <line x1="73" y1="96" x2="108" y2="96" stroke="#E8E8E8" stroke-width="0.5"/>
  
  <!-- Relationship lines -->
  <path d="M 55 37 Q 64 37 73 37" stroke="#F39C12" stroke-width="2" fill="none" marker-end="url(#arrowhead)"/>
  <path d="M 37 50 Q 37 64 37 78" stroke="#F39C12" stroke-width="2" fill="none" marker-end="url(#arrowhead)"/>
  <path d="M 55 90 Q 64 90 73 90" stroke="#F39C12" stroke-width="2" fill="none" marker-end="url(#arrowhead)"/>
  
  <!-- Arrow marker -->
  <defs>
    <marker id="arrowhead" markerWidth="10" markerHeight="7" refX="9" refY="3.5" orient="auto">
      <polygon points="0 0, 10 3.5, 0 7" fill="#F39C12"/>
    </marker>
  </defs>
</svg>